/* XPM */
static char *_bd24ff6c7224bcfe79b21041a5515e7daKjWNfMJYb4kx90[] = {
/* columns rows colors chars-per-pixel */
"24 24 9 1 ",
"  c None",
". c #323C39",
"X c #3F3F74",
"o c #D9A066",
"O c #306082",
"+ c #5B6EE1",
"@ c #639BFF",
"# c #EEC39A",
"$ c white",
/* pixels */
"    #$  ####$$$$  #$    ",
"  @+# ##+++++++X$$ $+@  ",
" @+X##X++++$$+++XX$$X+@ ",
" O.#XXX++@#@@$@++XXX$X+ ",
"###.XXX@@@#@@@@@@$$XX$$$",
"o #..X#$@@@##$@@$@@$X$ #",
" #...#+@$@@@@@#$@@@$XX$ ",
" #OO+o++#@XXXX@@@@$@+X$ ",
"#OOO++o#.XXXXXXX@$@@++X$",
"#OO+++++..##$$XX@#@@@++$",
"#OOo#++..#O+++$XX@$@$++$",
"#Oo++#+..#O#$+$XX@#@@$+$",
"oOo++#+..oOo#+#XX@#@@$+#",
"oOOo+#+..oOOOO#XX@@##++#",
"oOO+++#+..oo##.X@@@@@++#",
"o.OO++#+........#$@@+++#",
" o.O+#++++....+#+@$@++# ",
" o..o+++##+++++o++#XXX# ",
"# o.o++#++###+++o#.XX# $",
"ooo..oo++++++#+++..XX###",
" O.o...OO+o++o+OO...#X+ ",
" +O.oo..OOOooOOOO.##.O@ ",
"  +Oo oo.OOOOOOO## #O+  ",
"    o#  oooo####  o#    "
};
