/* XPM */
static char *_e1e388cd8974620f129d521c036b9ff4jVOMT0ilaCtGvbh[] = {
/* columns rows colors chars-per-pixel */
"40 40 5 1 ",
"  c black",
". c #000205",
"X c #317545",
"o c #428F42",
"O c #5C5185",
/* pixels */
"........................................",
".OOOOOOOOOOOOOOOOOOOOOOOOOOOOOOOOOOOOOO.",
".OOOOOOOOOOOOOOOOOOOOOOOOOOOOOOOOOOOOOO.",
".OOOOOOOOOOOOOOOOOOOOOOOOOOOOOOOOOOOOOO.",
".OOOOOOOOOOOOOOOOOOOOOOOOOOOOOOOOOOOOOO.",
".OOOOOOOOOOOOOOOOOOOOOOOOOOOOOOOOOOOOOO.",
".OOOOOOOOOOOOOOOOOOOOOOOOOOOOOOOOOOOOOO.",
".OOOOOOOOOOOOOOOO        OOOOOOOOOOOOOO.",
".OOOOOOOOOOOOO    ooooo  OOOOOOOOOOOOOO.",
".OOOOOOOOOOOOO    ooooo  OOOOOOOOOOOOOO.",
".OOOOOOOOOO    oooooooX  OOOOOOOOOOOOOO.",
".OOOOOOOOOO ooooooooooX         OOOOOOO.",
".OOOOOOOOOO ooooooooooX         OOOOOOO.",
".OOOOOOOOOO oooooX  XXX   ooooo OOOOOOO.",
".OOOOOOOOOO   oooX  XX oooooooo OOOOOOO.",
".OOOOOOOO        oXXXX ooXXXooo OOOOOOO.",
".OOOOOOOO        oXXXX ooXXXooo OOOOOOO.",
".OOOOO     oooo  oXX  ooo   ooo   OOOOO.",
".OOOOO  ooooXXXoo     oooooooooX  OOOOO.",
".OOOOO  ooooXXXoo     oooooooooX  OOOOO.",
".OOOOO  oooX   ooX     XXXXXXXXX  OOOOO.",
".OOOOO  ooo oooXXX  ooo           OOOOO.",
".OOOOO   ooooooXX oooooooo   OOOOOOOOOO.",
".OOOOO   ooooooXX oooooooo   OOOOOOOOOO.",
".OOOOOOO   oXXXXX oooooooooo   OOOOOOOO.",
".OOOOOOOO        oooXX oooooo  OOOOOOOO.",
".OOOOOOOO        oooXX oooooo  OOOOOOOO.",
".OOOOOOOOOOOOO   oooXX oooooX  OOOOOOOO.",
".OOOOOOOOOOOOO    oooooooXXXX  OOOOOOOO.",
".OOOOOOOOOOO   OO XXXXXXXX     OOOOOOOO.",
".OOOOOOOOOOO   OO XXXXXXXX     OOOOOOOO.",
".OOOOOOOOOO   OOO           OOOOOOOOOOO.",
".OOOOOOO    OOOOOOOOOOOOOOOOOOOOOOOOOOO.",
".OOOOOOO    OOOOOOOOOOOOOOOOOOOOOOOOOOO.",
".OOOOOOO   OOOOOOOOOOOOOOOOOOOOOOOOOOOO.",
".OOOOOOOOOOOOOOOOOOOOOOOOOOOOOOOOOOOOOO.",
".OOOOOOOOOOOOOOOOOOOOOOOOOOOOOOOOOOOOOO.",
".OOOOOOOOOOOOOOOOOOOOOOOOOOOOOOOOOOOOOO.",
".OOOOOOOOOOOOOOOOOOOOOOOOOOOOOOOOOOOOOO.",
"........................................"
};
