/* XPM */
static char *_b88bc39bfb54746d21cec2e5fb69f9eP1Fwr98B0DeYR5kY[] = {
/* columns rows colors chars-per-pixel */
"40 40 3 1 ",
"  c #000205",
". c #422908",
"X c #D4D433",
/* pixels */
"                                        ",
" XXXXXXXXXXXXXXXXXX..XXXXXXXXXXXXXXXXXX ",
" XXXXXXXXXXXXXXXXXX..XXXXXXXXXXXXXXXXXX ",
" XXXXXXXXXXXXXXXXXX..XXXXXXXXXXXXXXXXXX ",
" XXXXXXXXXXXXXXXXXX..XXXXXXXXXXXXXXXXXX ",
" XXXXXXXXXXXXXXXXXX..XXXXXXXXXXXXXXXXXX ",
" XXXXXXXXXXXXXXXXXX..XXXXXXXXXXXXXXXXXX ",
" XXXXXXXXXXXXXXXXXX..XXXXXXXXXXXXXXXXXX ",
" XXXXXXXXXXXXXXXXXX..XXXXXXXXXXXXXXXXXX ",
" XXXXXXXXXXXXXXXXXX..XXXXXXXXXXXXXXXXXX ",
" XXXXXXXXXXXXXXXXXX..XXXXXXXXXXXXXXXXXX ",
" XXXXXXXXXXXXXXXXXX..XXXXXXXXXXXXXXXXXX ",
" XXXXXXXXXXXXXXXXXX..XXXXXXXXXXXXXXXXXX ",
" XXXXXXXXXXXXXXXXXX..XXXXXXXXXXXXXXXXXX ",
" XXXXXXXXXXXXXXXXXX..XXXXXXXXXXXXXXXXXX ",
" XXXXXXXXXXXXXXXXXX..XXXXXXXXXXXXXXXXXX ",
" XXXXXXXXXXXXXXXXXX..XXXXXXXXXXXXXXXXXX ",
" XXXXXXXXXXXXXXXXXX..XXXXXXXXXXXXXXXXXX ",
" XXXXXXXXXXXXXXXXXX..XXXXXXXXXXXXXXXXXX ",
" XXXXXXXXXXXXXXXXXX..XXXXXXXXXXXXXXXXXX ",
" XXXXXXXXXXXXX....X..X....XXXXXXXXXXXXX ",
" XXXXXXXXXXXXXXXXXX..XXXXXXXXXXXXXXXXXX ",
" XXXXXXXXXXXXXXXXXX..XXXXXXXXXXXXXXXXXX ",
" XXXXXXXXXXXXXXXXXX..XXXXXXXXXXXXXXXXXX ",
" XXXXXXXXXXXXXXXXXX..XXXXXXXXXXXXXXXXXX ",
" XXXXXXXXXXXXXXXXXX..XXXXXXXXXXXXXXXXXX ",
" XXXXXXXXXXXXXXXXXX..XXXXXXXXXXXXXXXXXX ",
" XXXXXXXXXXXXXXXXXX..XXXXXXXXXXXXXXXXXX ",
" XXXXXXXXXXXXXXXXXX..XXXXXXXXXXXXXXXXXX ",
" XXXXXXXXXXXXXXXXXX..XXXXXXXXXXXXXXXXXX ",
" XXXXXXXXXXXXXXXXXX..XXXXXXXXXXXXXXXXXX ",
" XXXXXXXXXXXXXXXXXX..XXXXXXXXXXXXXXXXXX ",
" XXXXXXXXXXXXXXXXXX..XXXXXXXXXXXXXXXXXX ",
" XXXXXXXXXXXXXXXXXX..XXXXXXXXXXXXXXXXXX ",
" XXXXXXXXXXXXXXXXXX..XXXXXXXXXXXXXXXXXX ",
" XXXXXXXXXXXXXXXXXX..XXXXXXXXXXXXXXXXXX ",
" XXXXXXXXXXXXXXXXXX..XXXXXXXXXXXXXXXXXX ",
" XXXXXXXXXXXXXXXXXX..XXXXXXXXXXXXXXXXXX ",
" XXXXXXXXXXXXXXXXXX..XXXXXXXXXXXXXXXXXX ",
"                                        "
};
