/* XPM */
static char *_20d2df134fe401793bf1d2d30ed62cd7uQTaTFvRxO1HSSs[] = {
/* columns rows colors chars-per-pixel */
"40 40 2 1 ",
"  c #000205",
". c #5C5185",
/* pixels */
"                                        ",
" ...................................... ",
" ...................................... ",
" ...................................... ",
" ...................................... ",
" ...................................... ",
" ...................................... ",
" ...................................... ",
" ...................................... ",
" ...................................... ",
" ...................................... ",
" ...................................... ",
" ...................................... ",
" ...................................... ",
" ...................................... ",
" ...................................... ",
" ...................................... ",
" ...................................... ",
" ...................................... ",
" ...................................... ",
" ...................................... ",
" ...................................... ",
" ...................................... ",
" ...................................... ",
" ...................................... ",
" ...................................... ",
" ...................................... ",
" ...................................... ",
" ...................................... ",
" ...................................... ",
" ...................................... ",
" ...................................... ",
" ...................................... ",
" ...................................... ",
" ...................................... ",
" ...................................... ",
" ...................................... ",
" ...................................... ",
" ...................................... ",
"                                        "
};
