/* XPM */
static char *_7da8144fd0948caf7142efd108c72e3Hy4PTGROjeRIdo2m[] = {
/* columns rows colors chars-per-pixel */
"40 40 14 1 ",
"  c #000205",
". c #1D1D1D",
"X c gray13",
"o c #BF360C",
"O c #EF6C00",
"+ c #FF6F00",
"@ c #FFAB40",
"# c #FF8A65",
"$ c #5C5185",
"% c gray62",
"& c #FFCCBC",
"* c #B2D4C9",
"= c gray88",
"- c gray98",
/* pixels */
"                                        ",
" $$$$$$$$$$$$$$$$$$$$$$$$$$$$$$$$$$$$$$ ",
" $$$$$$$$$$$$$$$$$$$$$$$$$$$$$$$$$$$$$$ ",
" $$$$$$$$$$$$$$$$$$$$$$$$$$$$$$$$$$$$$$ ",
" $$$$$$$$$$$$$$$$$$$$$$$$$$$$$$$$$$$$$$ ",
" $$$$$$$$$$$$X$$$$$$$$$$$$XX$$$$$$$$$$$ ",
" $$$$$$$$$$XX+XX$$$$$$$$$X++X$$$$$$$$$$ ",
" $$$$$$$$$XXX+++X$$$$$$XX+++XXX$$$$$$$$ ",
" $$$$$$$$$XXX+++X$$$$$$XX+++XXX$$$$$$$$ ",
" $$$$$$$$$Xoo+++X$$$$$$XX+++oXX$$$$$$$$ ",
" $$$$$$$$$Xoo++++XX$$$X+++++oXX$$$$$$$$ ",
" $$$$$$$$$Xoo#@@#XX$$$X##@##oXX$$$$$$$$ ",
" $$$$$$$$$X##-@@-XXXXXX--@**#XX$$$$$$$$ ",
" $$$$$$$XXo--@@@---------@@@-ooX$$$$$$$ ",
" $$$$$$$XXX--@------------@@-XXX$$$$$$$ ",
" $$$$$$$$$X------------------XX$$$$$$$$ ",
" $$$$$$$$$X------------------XX$$$$$$$$ ",
" $$$$$$$XX-XX---------------X--X$$$$$$$ ",
" $$$$$$$XX---------------------X$$$$$$$ ",
" $$$$$$$XX----XX---------X-----X$$$$$$$ ",
" $$$$$$X------XX-@@@@@@--X------XX$$$$$ ",
" $$$$$$$..----oo-OOOOOO--o-----X$$$$$$$ ",
" $$$$$$X===--------&&&-------===XX$$$$$ ",
" $$$$$$X===--------&&&-------===XX$$$$$ ",
" $$$$$$$XXX======------======XXX$$$$$$$ ",
" $$$$$$$$$$XXXXXX------XXXXXX$$$$$$$$$$ ",
" $$$$$$$$$$XX---O------OO---X$$$$$$$$$$ ",
" $$$$$$$$$X---%%---------%---XX$$$$$$$$ ",
" $$$$$$$$$X---%%=------==%---XX$$$$$$$$ ",
" $$$$$$$$$X---%%=========%---XX$$$$$$$$ ",
" $$$$$$$$$$XX%============%%X$$$$$$$$$$ ",
" $$$$$$$$$$XX%============%%X$$$$$$$$$$ ",
" $$$$$$$$$XOOOOOXXXXXXXXXOOOOXX$$$$$$$$ ",
" $$$$$$$$$XoooooX$$$$$$XXooooXX$$$$$$$$ ",
" $$$$$$$$$$XXXXXX$$$$$$XXXXXX$$$$$$$$$$ ",
" $$$$$$$$$$$$$$$$$$$$$$$$$$$$$$$$$$$$$$ ",
" $$$$$$$$$$$$$$$$$$$$$$$$$$$$$$$$$$$$$$ ",
" $$$$$$$$$$$$$$$$$$$$$$$$$$$$$$$$$$$$$$ ",
" $$$$$$$$$$$$$$$$$$$$$$$$$$$$$$$$$$$$$$ ",
"                                        "
};
