/* XPM */
static char *_090130c2392418a8303e395b8e7f7f80CAN8sgCgiVyORqr[] = {
/* columns rows colors chars-per-pixel */
"40 40 5 1 ",
"  c #000205",
". c #422908",
"X c #5C5185",
"o c #B2D4C9",
"O c #C7EDC9",
/* pixels */
"                                        ",
" XXXXXXXXXXXXXXXXOOOOOOOOOOXXXXXXXXXXXX ",
" XXXXXXXXXXXXXOOOOOOOOOOOOOOOOOOOXXXXXX ",
" XXXXXXXXXXXOOOOOOOOOOOOOOOOOOOOOXXXXXX ",
" XXXXXXXXXOOOOOOOOOOOOOOOOOOOOOOOXXXXXX ",
" XXXXXOOOOOOOOOOOoOOoOOOOOoOOOOOOXXXXXX ",
" XXXXOOOOOOOOOOOOOOOoOOOOOOOOOOOOXXXXXX ",
" XXXOOOOOOOOOOOOOOOOOOOOOOOOOOOOOXXXXXX ",
" XXOOOOOOOOOOOOOOOOOoOOOOOOOOOOOOXXXXXX ",
" XXOOOOOOOOOOOOOOOOooOOOOOOoOOOOOXXXXXX ",
" XXOOOOOOOOOoOOoOOOOOOOOOOOoOOOOXXXXXXX ",
" XXOOOOOOOOOOOOOOOOOOOOOOOOOOOOOOOXXXXX ",
" XXOOOOOOoOOOOOOOOOOOOOOOOOOOOOOOOXXXXX ",
" XXOOOOOOOOOOOOOOOoOOOOOOOOOOOOOOOXXXXX ",
" XXOOOOOOOOOOOOOOOOOOOoOOOOoOOOOOOXXXXX ",
" XXXOOOOOOoOoOOOOOOOOOOOOOOoOOOOOOOXXXX ",
" XXXXOOOOOOOOOOoOOoOOOOOOOoOOOOOOOOXXXX ",
" XXXXXXOOOOOOOOOOOOOOOOOOOOOOOOOOOOXXXX ",
" XXXXXXXOOOOOOOOOOOOOOOOOOoOOOOOOOOXXXX ",
" XXXXXXXOOOOOOOOOOOOOOOOOOoOOOOOOOOXXXX ",
" XXXXXXOOOOoOOOOoOOOOOOOoOOOOOoOOOOXXXX ",
" XXXXXOOOOOOOoOOOOOOOOOOOOOOOOOOOOOXXXX ",
" XXXXXOOOOOOOOOOOOOOoOOOOOOOOOOOXXXXXXX ",
" XXXXXOOOOOOOOOOOOOOOOOOOOOOOOOOXXXXXXX ",
" XXXXXOOOOOOOOOOOOOOOOOOOOOOOOOOXXXXXXX ",
" XXXXXOOOOOOOOOOoOOOOoOOOOOOXXXXXXXXXXX ",
" XXXXXXOOOOOOOOOOOOOOOOOOOOXXXXXXXXXXXX ",
" XXXXXXXOOOOOOOOOOOOOOOOOOO..XXXXXXXXXX ",
" XXXXXXXXXOOOOOOOOOOOOOOO.....XXXXXXXXX ",
" XXXXXXXXX...OOOOOOOOOO........XXXXXXXX ",
" XXXXXXX.....OOOOOOOOO..........XXXXXXX ",
" XXXXX.................XX.........XXXXX ",
" XXX....................XX..........XXX ",
" XX.....................XXX..........XX ",
" X........................XX..........X ",
" .........X.......X........XXX......... ",
" .......XXX......XXX.......XXXXX....... ",
" ......XXXX.....XXXX.......XXXXXX...... ",
" ....XXXXXX.....XXXXXX.....XXXXXXXX.... ",
"                                        "
};
