/* XPM */
static char *d91c74a1c8364a6ba64d260cd62dae61nJpNzNdNkAQ0qA0G[] = {
/* columns rows colors chars-per-pixel */
"26 26 12 1 ",
"  c None",
". c #222034",
"X c #45283C",
"o c #3F3F74",
"O c #DF7126",
"+ c #ECB12D",
"@ c #FBF236",
"# c #5B6EE1",
"$ c #639BFF",
"% c #5FCDE4",
"& c #CBDBFC",
"* c white",
/* pixels */
"      ....      ....      ",
"  .........    .........  ",
" ......@+........@*...... ",
"...+@@@X#+......@$o***@...",
"..+XX#ooXO..@*..+o##$oo@..",
"..O..X#oXO@@+@**+o#$o..+..",
"......X#X#O@+@*+$o$o......",
" .....@@Xo#O@*+$#o**..... ",
"   ..@X$@Xo#O+$#o*&o*..   ",
"   ..@X$#@Xo%*#o*$&o*..   ",
"   ..+X$#$@X#%o*&$&o@..   ",
"   ...+#o$+X#%o@&#$@...   ",
"    ..+#oo$+Xo@&##$@..    ",
"    ...+#oo#O+$##$@...    ",
"     ..#O#ooo###$+$..     ",
"     ..#XO##o#$$+o$..     ",
"     ..#X@OO#$++*o$..     ",
"     ..oX+$XO+o&@o#..     ",
"     ..oXX+#Xo$@oo#..     ",
"     ...oX$O#$+&o#...     ",
"      ...o#XO+o$#...      ",
"       ...#XXoo$...       ",
"        ...#Xo$...        ",
"         ...o#...         ",
"          ......          ",
"           ....           "
};
