/* XPM */
static char *ea59e48efef3423785496d0ac35ec22c9SRkhNDsZTeHNs1h[] = {
/* columns rows colors chars-per-pixel */
"28 28 10 1 ",
"  c None",
". c #222034",
"X c #323C39",
"o c #3F3F74",
"O c #D9A066",
"+ c #306082",
"@ c #5B6EE1",
"# c #639BFF",
"$ c #EEC39A",
"% c white",
/* pixels */
"     ..................     ",
"   ......................   ",
"  ....$%..$$$$%%%%..$%....  ",
" ...#@$.$$@@@@@@@o%%.%@#... ",
" ..#@o$$o@@@@%%@@@oo%%o@#.. ",
"...+X$ooo@@#$##%#@@ooo%o@...",
"..$$$Xooo###$######%%oo%%%..",
"..O.$XXo$%###$$%##%##%o%.$..",
"...$XXX$@#%#####$%###%oo%...",
"...$++@O@@$#oooo####%#@o%...",
"..$+++@@O$Xooooooo#%##@@o%..",
"..$++@@@@@XX$$%%oo#$###@@%..",
"..$++O$@@XX$+@@@%oo#%#%@@%..",
"..$+O@@$@XX$+$%@%oo#$##%@%..",
"..O+O@@$@XXO+O$@$oo#$##%@$..",
"..O++O@$@XXO++++$oo##$$@@$..",
"..O++@@@$@XXOO$$Xo#####@@$..",
"..OX++@@$@XXXXXXXX$%##@@@$..",
"...OX+@$@@@@XXXX@$@#%#@@$...",
"...OXXO@@@$$@@@@@O@@$ooo$...",
"..$.OXO@@$@@$$$@@@O$Xoo$.%..",
"..OOOXXOO@@@@@@$@@@XXoo$$$..",
"...+XOXXX++@O@@O@++XXX$o@...",
" ..@+XOOXX+++OO++++X$$X+#.. ",
" ...@+O.OOX+++++++$$.$+@... ",
"  ....O$..OOOO$$$$..O$....  ",
"   ......................   ",
"     ..................     "
};
