/* XPM */
static char *_caef13d9aa441cfba4a024813a9f588lEe3hY8nF5bD2VJ9[] = {
/* columns rows colors chars-per-pixel */
"24 31 10 1 ",
"  c None",
". c #222034",
"X c #45283C",
"o c #663931",
"O c #3F3F74",
"+ c #8F563B",
"@ c #D9A066",
"# c #5B6EE1",
"$ c #639BFF",
"% c #EEC39A",
/* pixels */
"         ......         ",
" ....   ........   .... ",
"......  ..@..%..  ......",
"..@@.......@%.......@%..",
"...@+......@%......+@...",
" ..++oo...@o+%...oo++.. ",
" ..+oXX@@+@o+%@%%OOo+.. ",
" ...X@@XX#@o+%$OO%%O... ",
"  ...+XXX#O@%#$OOO@...  ",
"  ..@XXXXX#O#$OOOOO%..  ",
"  ..@##XXXXO#OOOO$$%..  ",
"  ..@OO#XXO#$#OO$##%..  ",
"  ..+++#XOO..##O$@@@..  ",
"  .....+O#.@%.$#@.....  ",
"   ....+O#.+@.$#@....   ",
"   ...@XX##..$$OO%...   ",
"  ...@XX#OO#$##$OO%...  ",
"  ..@XX#OOOO####$OO%..  ",
"  ..@X#OOOXXOO###$O%..  ",
"  ...+#OXXX@%OOO#$@...  ",
"   ..+#XXX@o+%OOO$@..   ",
"   ...+XXX@o+%OOO@...   ",
"    ...++X@o+%O@@...    ",
"    ..oXX@@..%%OOo..    ",
"    ..+oo......oo+..    ",
"    ..@+........+@..    ",
"    ...@........%...    ",
"     ......@%......     ",
"      .....+@.....      ",
"         ......         ",
"          ....          "
};
