/* XPM */
static char *_1c87f7ba60645028fe4aae4fe4dac4f4j27dO8ko5JeyRa9[] = {
/* columns rows colors chars-per-pixel */
"26 28 12 1 ",
"  c None",
". c #222034",
"X c #323C39",
"o c #3F3F74",
"O c #DF7126",
"+ c #ECB12D",
"@ c #FBF236",
"# c #5B6EE1",
"$ c #639BFF",
"% c #5FCDE4",
"& c #CBDBFC",
"* c white",
/* pixels */
"          ......          ",
"         ........         ",
"         ..+@@@..         ",
"       ....O++@....       ",
"     ......OO++......     ",
"    ....&&%OO++&**....    ",
"    ..&%XXX&OO*ooo&*..    ",
"   ...%XoooX&*o###o&...   ",
" ....&XXXo##%&oo#$$o*.... ",
".....%Xoooooo######o&.....",
"..@..%XXXo##%&oo#$$o&..@..",
"..+@@.&&oooo&*####**.@@+..",
"..O+@+..&oo&o#*##*..+@++..",
"...O++O.&oo&o#*##*.O++O...",
" ..OOO.&ooo&Xo*###*.OOO.. ",
" ...O.&XXooo&*###$$*.O... ",
"  ...&Xooo##%&oo###o*...  ",
"   ..&XXXoooo####$$o*..   ",
"   ...%ooo##%&oo###&...   ",
"    ..%Xooooo#####o&..    ",
"    ...%XXXo%&#ooo&...    ",
"     ...$#X#+@$o$%...     ",
"      ....#O++@$....      ",
"       ....O+++....       ",
"         ..OO++..         ",
"         ...OO...         ",
"          ......          ",
"           ....           "
};
