/* XPM */
static char *_e32d8ecf9564c98906b74a8d37018ee3qe7fmkomnwpLsbR[] = {
/* columns rows colors chars-per-pixel */
"22 24 12 1 ",
"  c None",
". c #222034",
"X c #45283C",
"o c #663931",
"O c #3F3F74",
"+ c #AC3232",
"@ c #8F563B",
"# c #D95763",
"$ c #D9A066",
"% c #5B6EE1",
"& c #EEC39A",
"* c white",
/* pixels */
"  ...            ...  ",
" ......        ...... ",
"...&.....    .....*...",
"..&O&&..........**+*..",
"..&OOO$$......&&+++*..",
"..$%&OOO$&..&&+++*#&..",
"..$%%&OOOO$&++++*##&..",
"..@O%%&%O$o@&+#*##+$..",
"...@O%$%%@.X$##&#+$...",
" ...$O$%%@.X$##&+&... ",
"  ..$O@OO@o@$++$+&..  ",
"  ..@%@%O$.X&+#$#$..  ",
"  ..@%$%%$.X&##&#$..  ",
"  ..@O%$$.o@X&&#+$..  ",
"  ...$O%@.&*X$#+&...  ",
"   ..@OO@.$&X$++$..   ",
"   ...@O@.o@X$+$...   ",
"    ..@%O@.X$+#$..    ",
"    ...@%$.X&#$...    ",
"     ...@$Xo&$...     ",
"      ...@.X$...      ",
"       ...@$...       ",
"        ......        ",
"         ....         "
};
